<?xml version="1.0" encoding="UTF-8"?>
<svg width="32" height="32" viewBox="0 0 32 32" xmlns="http://www.w3.org/2000/svg">
  <!-- Background circle with gradient -->
  <defs>
    <linearGradient id="bgGradient" x1="0%" y1="0%" x2="100%" y2="100%">
      <stop offset="0%" style="stop-color:#1E3A8A;stop-opacity:1" />
      <stop offset="100%" style="stop-color:#3B82F6;stop-opacity:1" />
    </linearGradient>
    <linearGradient id="textGradient" x1="0%" y1="0%" x2="100%" y2="100%">
      <stop offset="0%" style="stop-color:#FFFFFF;stop-opacity:1" />
      <stop offset="100%" style="stop-color:#E5E7EB;stop-opacity:1" />
    </linearGradient>
  </defs>

  <!-- Main background circle -->
  <circle cx="16" cy="16" r="15" fill="url(#bgGradient)" stroke="#1E40AF" stroke-width="2"/>

  <!-- B2 Text -->
  <text x="16" y="20" font-family="Arial, sans-serif" font-size="14" font-weight="bold"
        text-anchor="middle" fill="url(#textGradient)">B2</text>

  <!-- Backup arrows pointing up -->
  <g fill="white" opacity="0.8">
    <!-- Left arrow -->
    <path d="M8 12l2-2v2h1v-2l2 2-2 2v-2H10v2l-2-2z"/>
    <!-- Right arrow -->
    <path d="M22 12l2-2v2h1v-2l2 2-2 2v-2h-1v2l-2-2z"/>
  </g>

  <!-- Cloud storage indicator -->
  <circle cx="16" cy="26" r="3" fill="white" opacity="0.6"/>
  <circle cx="16" cy="26" r="1.5" fill="#3B82F6"/>

  <!-- Lightning bolt for "Blaze" -->
  <path d="M14 8l-1 3h2l-1 2h2l-2 3h1l1-3h-2l1-2h-2l2-5z" fill="#FFD700" opacity="0.9"/>
</svg>
